<?xml version="1.0" encoding="utf-8"?>
<!-- Generator: Adobe Illustrator 23.0.2, SVG Export Plug-In . SVG Version: 6.00 Build 0)  -->
<svg version="1.1" id="Layer_1" xmlns="http://www.w3.org/2000/svg" xmlns:xlink="http://www.w3.org/1999/xlink" x="0px" y="0px"
	 viewBox="0 0 28.5 8.2" style="enable-background:new 0 0 28.5 8.2;" xml:space="preserve">
<style type="text/css">
	.st0{fill:url(#SVGID_1_);}
	.st1{fill:url(#SVGID_2_);}
	.st2{fill:url(#SVGID_3_);}
	.st3{fill:url(#SVGID_4_);}
</style>
<linearGradient id="SVGID_1_" gradientUnits="userSpaceOnUse" x1="6.7842" y1="-2.7182" x2="20.2996" y2="10.7973">
	<stop  offset="0" style="stop-color:#A1A1A1"/>
	<stop  offset="1" style="stop-color:#000000"/>
</linearGradient>
<polygon class="st0" points="26.4,3.3 22.3,3.1 18.9,3.2 18.7,2.6 2.2,3.1 0,4.1 2.2,5 18.6,5.5 18.8,4.9 22.2,5 26.4,4.8 "/>
<linearGradient id="SVGID_2_" gradientUnits="userSpaceOnUse" x1="18.8744" y1="6.65" x2="-2.562186e-02" y2="6.65" gradientTransform="matrix(1 0 0 -1 0 10)">
	<stop  offset="0" style="stop-color:#FFFFFF"/>
	<stop  offset="1" style="stop-color:#000000"/>
</linearGradient>
<polygon class="st1" points="18.9,3.2 18.9,3.2 18.7,2.6 2.2,3.1 0,4.1 18.9,4.1 "/>
<polygon points="18.6,3.1 18.6,5 22,5 26.4,4.9 26.4,3.2 22,3.1 "/>
<path d="M16.5,1.1L16.5,1.1c0.1,0,0.2,0,0.3,0c0.7,0.1,1.1,0.4,1.1,0.6c0,0.1-0.1,0.2-0.3,0.2l0,0c0.8,0.5,0.6,0.9,0.6,0.9
	s0.1,0.5-0.7,1.3c0.8,0.8,0.7,1.3,0.7,1.3s0.1,0.4-0.6,0.9l0,0c0.2,0,0.3,0.1,0.3,0.2c0,0.2-0.4,0.5-1.1,0.6c-0.1,0-0.2,0-0.3,0
	l1.2,1.1c0.7-0.3,1.3-2,1.3-4.1S18.4,0.3,17.7,0L16.5,1.1z"/>
<g>
	<linearGradient id="SVGID_3_" gradientUnits="userSpaceOnUse" x1="25.9451" y1="5.074" x2="27.8932" y2="3.126">
		<stop  offset="0" style="stop-color:#A1A1A1"/>
		<stop  offset="1" style="stop-color:#000000"/>
	</linearGradient>
	<path class="st2" d="M28.5,4.1L28.5,4.1c0-0.1-0.1-0.3-0.2-0.4c0,0,0,0,0,0c0,0,0,0,0,0c0,0,0,0,0,0c0,0-0.1-0.1-0.1-0.1
		C28.1,3.5,28,3.4,28,3.3c0,0,0,0,0,0c0-0.1,0-0.2-0.1-0.2C27.8,3,27.7,3,27.6,3l0,0c-0.1,0-0.3,0-0.4-0.1c0,0,0,0,0,0
		c0,0,0,0,0-0.1c-0.1-0.1-0.2-0.1-0.3-0.1c0,0,0,0,0,0h-0.4v0.6v0.1v1.6h0v0.1v0.6h0.4c0,0,0,0,0,0c0.1,0,0.2,0,0.3-0.1
		c0,0,0,0,0-0.1c0,0,0,0,0,0c0.1-0.1,0.2-0.1,0.4-0.1l0,0c0.1,0,0.2,0,0.3-0.1C27.9,5,28,5,28,4.9c0,0,0,0,0,0
		c0-0.1,0.1-0.2,0.2-0.3c0,0,0.1,0,0.1-0.1c0,0,0,0,0,0c0,0,0,0,0,0c0,0,0,0,0,0C28.5,4.4,28.5,4.2,28.5,4.1L28.5,4.1
		C28.5,4.1,28.5,4.1,28.5,4.1C28.5,4.1,28.5,4.1,28.5,4.1z M27.2,3.3C27.2,3.3,27.2,3.3,27.2,3.3L27.2,3.3
		C27.2,3.3,27.2,3.3,27.2,3.3z M27.2,4.9L27.2,4.9C27.2,4.9,27.2,4.9,27.2,4.9C27.2,4.9,27.2,4.9,27.2,4.9z"/>
	<linearGradient id="SVGID_4_" gradientUnits="userSpaceOnUse" x1="27.2271" y1="5.248" x2="27.2271" y2="3.0096">
		<stop  offset="0" style="stop-color:#FFFFFF"/>
		<stop  offset="1" style="stop-color:#595959"/>
	</linearGradient>
	<path class="st3" d="M27.9,3.8C27.9,3.8,27.9,3.8,27.9,3.8C27.9,3.8,27.9,3.8,27.9,3.8C27.9,3.8,27.9,3.8,27.9,3.8
		c-0.1-0.1-0.1-0.1-0.1-0.1c-0.1-0.1-0.1-0.1-0.2-0.2c0,0,0,0,0,0c0-0.1,0-0.1-0.1-0.2c-0.1-0.1-0.1-0.1-0.2-0.1l0,0
		c-0.1,0-0.2,0-0.3-0.1c0,0,0,0,0,0c0,0,0,0,0,0C26.9,3,26.8,3,26.7,3c0,0,0,0,0,0h-0.3v2.2h0.3c0,0,0,0,0,0c0.1,0,0.2,0,0.3-0.1
		c0,0,0,0,0,0c0,0,0,0,0,0C27.1,5,27.2,5,27.3,5l0,0c0.1,0,0.2,0,0.2-0.1c0.1-0.1,0.1-0.1,0.1-0.2c0,0,0,0,0,0
		c0-0.1,0.1-0.1,0.2-0.2c0,0,0.1,0,0.1-0.1c0,0,0,0,0,0c0,0,0,0,0,0c0,0,0,0,0,0c0.1-0.1,0.1-0.2,0.1-0.3C28.1,4,28,3.9,27.9,3.8z
		 M27,3.5C27,3.5,27,3.5,27,3.5L27,3.5C27,3.5,27,3.5,27,3.5z M27,4.7C27,4.7,27,4.7,27,4.7L27,4.7C27,4.7,27,4.7,27,4.7z"/>
</g>
</svg>
