<?xml version="1.0" encoding="utf-8"?>
<!-- Generator: Adobe Illustrator 23.0.2, SVG Export Plug-In . SVG Version: 6.00 Build 0)  -->
<svg version="1.1" id="Layer_1" xmlns="http://www.w3.org/2000/svg" xmlns:xlink="http://www.w3.org/1999/xlink" x="0px" y="0px"
	 viewBox="0 0 98.1 16.9" style="enable-background:new 0 0 98.1 16.9;" xml:space="preserve">
<style type="text/css">
	.st0{fill:url(#SVGID_1_);}
	.st1{fill:url(#SVGID_2_);}
	.st2{fill:url(#SVGID_3_);}
	.st3{fill:url(#SVGID_4_);}
	.st4{fill:url(#SVGID_5_);}
	.st5{fill:url(#SVGID_6_);}
</style>
<linearGradient id="SVGID_1_" gradientUnits="userSpaceOnUse" x1="0" y1="1893.3483" x2="50.2478" y2="1893.3483" gradientTransform="matrix(1 0 0 -1 0 1900.8608)">
	<stop  offset="0" style="stop-color:#9E964E"/>
	<stop  offset="1" style="stop-color:#33200B"/>
</linearGradient>
<path class="st0" d="M24.6,15C13.9,15,2.8,9.8,2.3,9.6L0,8.5l2.3-1.1c0.5-0.2,11.6-5.5,22.3-5.5c9.1,0,16.2,3.8,18.4,5.1
	c1.4-1,4.7-3.8,4.7-7h2.4c0,5.3-6,9.2-6.5,9.5C43.3,9.8,35.3,15,24.6,15z M5.9,8.5c3.9,1.5,11.5,4.1,18.7,4.1
	c7.3,0,13.3-2.6,16.1-4.1C37.9,7,31.9,4.3,24.6,4.3C17.4,4.3,9.8,6.9,5.9,8.5z"/>
<linearGradient id="SVGID_2_" gradientUnits="userSpaceOnUse" x1="96.6826" y1="-411.8963" x2="104.4475" y2="-411.8963" gradientTransform="matrix(-1 0 0 1 152.2775 424.0895)">
	<stop  offset="0" style="stop-color:#9E964E"/>
	<stop  offset="1" style="stop-color:#33200B"/>
</linearGradient>
<path class="st1" d="M50.2,16.9h-2.4c0-5.4,6.2-9.3,6.5-9.5l1.3,2l-0.6-1l0.6,1C55.5,9.5,50.2,12.9,50.2,16.9z"/>
<linearGradient id="SVGID_3_" gradientUnits="userSpaceOnUse" x1="54.2" y1="-415.6191" x2="99.4827" y2="-415.6191" gradientTransform="matrix(-1 0 0 1 152.2775 424.0895)">
	<stop  offset="0" style="stop-color:#9E964E"/>
	<stop  offset="1" style="stop-color:#33200B"/>
</linearGradient>
<path class="st2" d="M73.4,15c-10.8,0-18.8-5.3-19.2-5.6l-1.5-1l1.5-1c0.3-0.2,8.3-5.6,19.2-5.6c10.7,0,21.9,5.2,22.3,5.5l2.3,1.1
	l-2.3,1.1C95.3,9.8,84.2,15,73.4,15z M57.4,8.5c2.8,1.5,8.8,4.1,16.1,4.1c7.2,0,14.9-2.6,18.7-4.1c-3.9-1.5-11.5-4.1-18.7-4.1
	C66.2,4.3,60.2,7,57.4,8.5z"/>
<linearGradient id="SVGID_4_" gradientUnits="userSpaceOnUse" x1="10.1749" y1="1892.3904" x2="55.4576" y2="1892.3904" gradientTransform="matrix(-1 0 0 -1 108.2523 1900.8608)">
	<stop  offset="0" style="stop-color:#9E964E"/>
	<stop  offset="1" style="stop-color:#33200B"/>
</linearGradient>
<path class="st3" d="M73.4,15c-10.8,0-18.8-5.3-19.2-5.6l-1.5-1l1.5-1c0.3-0.2,8.3-5.6,19.2-5.6c10.7,0,21.9,5.2,22.3,5.5l2.3,1.1
	l-2.3,1.1C95.3,9.8,84.2,15,73.4,15z M57.4,8.5c2.8,1.5,8.8,4.1,16.1,4.1c7.2,0,14.9-2.6,18.7-4.1c-3.9-1.5-11.5-4.1-18.7-4.1
	C66.2,4.3,60.2,7,57.4,8.5z"/>
<linearGradient id="SVGID_5_" gradientUnits="userSpaceOnUse" x1="56.5399" y1="1900.8608" x2="56.5399" y2="1891.3656" gradientTransform="matrix(-1 0 0 -1 108.2523 1900.8608)">
	<stop  offset="0" style="stop-color:#9E964E"/>
	<stop  offset="1" style="stop-color:#33200B"/>
</linearGradient>
<path class="st4" d="M54.3,9.5C54,9.3,47.8,5.4,47.8,0h2.4c0,4,5.3,7.4,5.3,7.4L54.3,9.5z"/>
<linearGradient id="SVGID_6_" gradientUnits="userSpaceOnUse" x1="-44.0251" y1="-414.6613" x2="6.2227" y2="-414.6613" gradientTransform="matrix(1 0 0 1 44.0251 424.0895)">
	<stop  offset="0" style="stop-color:#9E964E"/>
	<stop  offset="1" style="stop-color:#33200B"/>
</linearGradient>
<path class="st5" d="M50.2,16.9h-2.4c0-2.1-1.4-4-2.6-5.2c-0.8-0.8-1.6-1.5-2.1-1.8c-2.2,1.3-9.3,5.1-18.4,5.1
	C13.9,15,2.8,9.8,2.3,9.6L0,8.5l2.3-1.1c0.5-0.2,11.6-5.5,22.3-5.5c10.7,0,18.6,5.2,19.1,5.5C44.2,7.7,50.2,11.7,50.2,16.9z
	 M5.9,8.5c3.9,1.5,11.5,4.1,18.7,4.1c7.3,0,13.3-2.6,16.1-4.1C37.9,7,31.9,4.3,24.6,4.3C17.4,4.3,9.8,6.9,5.9,8.5z"/>
</svg>
