<?xml version="1.0" encoding="utf-8"?>
<!-- Generator: Adobe Illustrator 23.0.2, SVG Export Plug-In . SVG Version: 6.00 Build 0)  -->
<svg version="1.1" id="Layer_1" xmlns="http://www.w3.org/2000/svg" xmlns:xlink="http://www.w3.org/1999/xlink" x="0px" y="0px"
	 viewBox="0 0 39.5 7.3" style="enable-background:new 0 0 39.5 7.3;" xml:space="preserve">
<style type="text/css">
	.st0{fill:url(#SVGID_1_);}
	.st1{fill:url(#SVGID_2_);}
	.st2{fill:url(#SVGID_3_);}
	.st3{fill:url(#SVGID_4_);}
	.st4{fill:url(#SVGID_5_);}
</style>
<linearGradient id="SVGID_1_" gradientUnits="userSpaceOnUse" x1="9.966" y1="13.5955" x2="29.8981" y2="-6.3366">
	<stop  offset="0" style="stop-color:#A1A1A1"/>
	<stop  offset="1" style="stop-color:#000000"/>
</linearGradient>
<path class="st0" d="M39.5,3.6C39.5,3.6,39.5,3.6,39.5,3.6L39.5,3.6c0-0.1-0.1-0.3-0.2-0.4c0,0,0,0,0,0c0,0,0,0,0,0c0,0,0,0,0,0
	c0,0-0.1-0.1-0.1-0.1C39.1,3,39,3,39,2.9c0,0,0,0,0,0c0-0.1,0-0.2-0.1-0.2c-0.1-0.1-0.2-0.1-0.3-0.1l0,0c-0.1,0-0.3,0-0.4-0.1
	c0,0,0,0,0,0c0,0,0,0,0-0.1c-0.1-0.1-0.2-0.1-0.3-0.1c0,0,0,0,0,0h-0.4v0.6v0.1l-4.2-0.2l-3.4,0.1l-0.2-0.6L2.3,2.7L0,3.6l0,0
	l2.3,0.9l27.3,0.5l0.2-0.6l3.4,0.1l4.2-0.2v0.1v0.6h0.4c0,0,0,0,0,0c0.1,0,0.2,0,0.3-0.1c0,0,0,0,0-0.1c0,0,0,0,0,0
	c0.1-0.1,0.2-0.1,0.4-0.1l0,0c0.1,0,0.2,0,0.3-0.1C38.9,4.6,39,4.5,39,4.4c0,0,0,0,0,0c0-0.1,0.1-0.2,0.2-0.3c0,0,0.1,0,0.1-0.1
	c0,0,0,0,0,0c0,0,0,0,0,0c0,0,0,0,0,0C39.5,3.9,39.5,3.8,39.5,3.6L39.5,3.6C39.5,3.6,39.5,3.6,39.5,3.6z M38.2,2.9
	C38.2,2.9,38.2,2.9,38.2,2.9L38.2,2.9C38.2,2.9,38.2,2.9,38.2,2.9z M38.2,4.4L38.2,4.4C38.2,4.4,38.2,4.4,38.2,4.4
	C38.2,4.4,38.2,4.4,38.2,4.4z"/>
<linearGradient id="SVGID_2_" gradientUnits="userSpaceOnUse" x1="29.8772" y1="2.9252" x2="6.676926e-02" y2="2.9252">
	<stop  offset="0" style="stop-color:#FFFFFF"/>
	<stop  offset="1" style="stop-color:#000000"/>
</linearGradient>
<polygon class="st1" points="29.9,2.8 29.9,2.8 29.7,2.2 2.4,2.7 0.1,3.6 29.9,3.6 "/>
<polygon points="29.6,2.7 29.6,4.6 33,4.6 37.4,4.5 37.4,2.8 33,2.7 "/>
<path d="M27.6,1L27.6,1c0.1,0,0.2,0,0.3,0c0.6,0.1,1,0.3,1,0.5c0,0.1-0.1,0.2-0.3,0.2c0,0,0,0,0,0c0.7,0.4,0.6,0.8,0.6,0.8
	s0.1,0.4-0.6,1.2c0.7,0.7,0.6,1.2,0.6,1.2s0.1,0.3-0.6,0.8c0,0,0,0,0,0c0.2,0,0.3,0.1,0.3,0.2c0,0.2-0.4,0.4-1,0.5
	c-0.1,0-0.2,0-0.3,0l1.1,1c0.7-0.2,1.2-1.8,1.2-3.6c0-1.9-0.5-3.4-1.2-3.6L27.6,1z"/>
<linearGradient id="SVGID_3_" gradientUnits="userSpaceOnUse" x1="26.5171" y1="20.7208" x2="26.5171" y2="19.0666" gradientTransform="matrix(6.123234e-17 -1 1 6.123234e-17 18.3301 29.6154)">
	<stop  offset="0" style="stop-color:#FFFFFF"/>
	<stop  offset="1" style="stop-color:#595959"/>
</linearGradient>
<path class="st2" d="M37.4,3v0.6l0.3,0h1.4c0-0.1,0-0.2-0.1-0.3c0,0,0,0,0,0c0,0,0,0,0,0c0,0,0,0,0,0c0,0-0.1,0-0.1-0.1
	c-0.1-0.1-0.1-0.1-0.2-0.2c0,0,0,0,0,0c0-0.1,0-0.1-0.1-0.2c-0.1-0.1-0.1-0.1-0.2-0.1l0,0c-0.1,0-0.2,0-0.3-0.1c0,0,0,0,0,0
	c0,0,0,0,0,0c-0.1-0.1-0.2-0.1-0.3-0.1c0,0,0,0,0,0h-0.3V3L37.4,3z M38,3.1L38,3.1C38,3,38,3,38,3.1C38,3,38,3,38,3.1z"/>
<linearGradient id="SVGID_4_" gradientUnits="userSpaceOnUse" x1="-365.6164" y1="20.7208" x2="-365.6164" y2="19.0666" gradientTransform="matrix(-4.489665e-11 1 1 4.489665e-11 18.3301 369.8339)">
	<stop  offset="0" style="stop-color:#FFFFFF"/>
	<stop  offset="1" style="stop-color:#595959"/>
</linearGradient>
<path class="st3" d="M37.4,4.3v0.5h0.3c0,0,0,0,0,0c0.1,0,0.2,0,0.3-0.1c0,0,0,0,0,0c0,0,0,0,0,0c0.1-0.1,0.2-0.1,0.3-0.1l0,0
	c0.1,0,0.2,0,0.2-0.1c0.1-0.1,0.1-0.1,0.1-0.2c0,0,0,0,0,0c0-0.1,0.1-0.1,0.2-0.2c0,0,0.1,0,0.1-0.1c0,0,0,0,0,0c0,0,0,0,0,0
	c0,0,0,0,0,0c0.1-0.1,0.1-0.2,0.1-0.3h-1.4l-0.3,0V4.3L37.4,4.3z M38,4.3C38,4.3,38,4.3,38,4.3L38,4.3C38,4.3,38,4.3,38,4.3z"/>
</svg>
